<?xml version="1.0" standalone="no"?>
<!DOCTYPE svg PUBLIC "-//W3C//DTD SVG 20010904//EN"
 "http://www.w3.org/TR/2001/REC-SVG-20010904/DTD/svg10.dtd">
<svg version="1.0" xmlns="http://www.w3.org/2000/svg"
 width="250.000000pt" height="131.000000pt" viewBox="0 0 250.000000 131.000000"
 preserveAspectRatio="xMidYMid meet">

<g transform="translate(0.000000,131.000000) scale(0.100000,-0.100000)"
fill="#000000" stroke="none">
<path d="M1174 1295 c-80 -17 -104 -30 -192 -104 -89 -74 -107 -84 -219 -116
-184 -53 -535 -176 -625 -218 -51 -24 -103 -55 -116 -69 -23 -25 -23 -28 -13
-119 7 -64 7 -150 0 -269 -12 -214 -3 -360 22 -360 5 0 9 79 9 190 0 105 3
190 7 190 4 0 24 -17 45 -37 21 -20 39 -35 40 -32 2 2 27 30 56 61 l52 57 51
-58 c28 -32 69 -68 90 -80 l39 -22 0 170 0 171 180 0 180 0 0 -160 c0 -134 3
-162 15 -166 31 -12 72 9 127 67 l58 59 36 -40 c25 -28 34 -45 29 -59 -5 -17
-1 -20 25 -19 21 1 30 6 30 18 0 22 37 70 54 70 8 0 25 -18 40 -40 14 -22 31
-40 37 -40 6 0 30 21 55 48 l43 47 35 -40 c20 -22 35 -48 36 -57 0 -26 50 -25
50 1 0 10 16 33 36 51 l36 31 29 -27 c16 -15 31 -36 35 -46 8 -26 43 -23 54 6
8 21 67 73 74 65 35 -52 72 -89 86 -89 10 0 35 20 56 45 20 25 41 45 46 45 15
0 88 -78 88 -94 0 -9 8 -16 18 -16 17 0 38 -18 70 -62 11 -14 1 -29 -73 -108
-47 -50 -85 -98 -85 -106 0 -27 37 3 100 79 84 102 89 104 135 57 l38 -39 -36
-41 c-36 -39 -48 -70 -27 -70 6 0 25 20 42 45 18 25 37 45 44 45 19 0 54 -55
54 -85 0 -22 3 -25 14 -16 7 6 21 9 30 5 12 -5 16 0 16 19 0 14 9 35 19 48
l19 24 31 -29 c17 -17 30 -37 29 -45 -2 -12 7 -17 32 -19 l35 -3 -1 333 c0
363 -4 389 -55 432 -63 53 -498 252 -634 291 -115 32 -143 46 -210 103 -73 63
-152 106 -230 127 -70 18 -109 18 -191 0z m134 -21 c18 -5 20 -9 11 -21 -26
-31 -47 -34 -83 -12 -20 12 -36 25 -36 30 0 10 73 12 108 3z m-103 -49 c17
-13 25 -24 18 -25 -7 0 -25 11 -40 25 -36 32 -17 32 22 0z m165 20 c0 -9 -44
-45 -54 -45 -6 0 2 12 17 25 28 24 37 30 37 20z m-205 -39 c17 -13 26 -28 22
-32 -4 -4 -22 6 -40 24 -37 37 -25 43 18 8z m230 -6 c-16 -16 -33 -30 -39 -30
-5 0 3 14 19 30 16 17 33 30 39 30 5 0 -3 -13 -19 -30z m97 14 c18 -9 56 -39
85 -66 l52 -50 -35 -25 c-21 -14 -43 -21 -54 -18 -32 10 -140 84 -140 96 0 10
49 76 58 78 2 1 17 -6 34 -15z m-374 -26 c23 -18 41 -36 41 -39 1 -3 -32 -28
-73 -56 l-74 -50 -40 31 c-23 17 -41 34 -42 38 0 10 122 107 136 108 7 0 30
-15 52 -32z m172 -18 c0 -5 -7 -10 -15 -10 -8 0 -15 5 -15 10 0 6 7 10 15 10
8 0 15 -4 15 -10z m-40 -30 c0 -5 -6 -10 -14 -10 -8 0 -18 5 -21 10 -3 6 3 10
14 10 12 0 21 -4 21 -10z m80 0 c0 -5 -4 -10 -9 -10 -6 0 -13 5 -16 10 -3 6 1
10 9 10 9 0 16 -4 16 -10z m-130 -39 c-9 -18 -77 -78 -107 -95 -7 -4 -22 -2
-34 5 l-22 11 24 20 c86 69 162 101 139 59z m95 8 c10 -15 -1 -23 -20 -15 -9
3 -13 10 -10 16 8 13 22 13 30 -1z m151 -44 c54 -36 63 -45 43 -45 -23 0 -127
67 -128 83 -2 14 17 6 85 -38z m-547 21 c-10 -9 -174 -87 -274 -131 -285 -123
-360 -162 -395 -202 -17 -18 -30 -45 -30 -58 0 -14 -14 -39 -30 -57 l-30 -33
-43 48 c-23 26 -48 47 -54 47 -18 0 -16 41 3 68 23 34 131 84 314 146 91 31
248 85 350 119 163 56 205 68 189 53z m361 -26 c0 -5 -17 -29 -37 -54 -37 -44
-64 -55 -92 -37 -26 17 83 116 115 104 8 -3 14 -9 14 -13z m129 -18 c60 -42
70 -56 45 -66 -11 -4 -32 7 -62 31 -25 21 -50 41 -55 44 -10 7 -1 29 11 29 4
0 31 -18 61 -38z m670 -106 c190 -83 315 -149 358 -192 55 -56 56 -81 2 -139
l-42 -45 -36 27 c-50 38 -60 53 -61 91 0 71 -81 127 -487 334 -46 23 -83 45
-83 49 0 8 238 -77 349 -125z m-1119 119 c0 -3 -31 -20 -68 -39 -112 -57 -312
-175 -394 -233 -56 -40 -79 -63 -83 -84 -4 -15 -24 -47 -46 -71 l-39 -43 -28
33 c-16 18 -35 44 -43 59 -13 24 -12 27 30 64 59 53 100 74 333 174 112 48
228 100 258 116 52 27 80 35 80 24z m864 -78 c61 -36 165 -92 232 -126 67 -34
138 -76 158 -93 42 -34 75 -90 57 -96 -6 -2 -9 -8 -6 -13 7 -11 -44 -69 -60
-69 -19 0 -85 77 -85 99 0 31 -133 145 -307 262 -90 60 -163 112 -163 114 0
12 76 -22 174 -78z m-843 39 c-6 -7 -67 -52 -135 -100 -136 -94 -187 -145
-206 -200 l-12 -36 -94 0 c-52 0 -94 4 -94 9 0 26 62 70 250 177 113 64 225
130 250 145 46 28 62 31 41 5z m401 -40 c4 -6 2 -14 -5 -18 -14 -9 -137 -11
-137 -2 0 3 14 24 31 45 l31 40 37 -28 c20 -15 39 -32 43 -37z m408 -54 c209
-141 276 -192 294 -223 14 -24 13 -28 -20 -78 -19 -29 -42 -55 -50 -58 -9 -3
-29 8 -50 28 -28 27 -34 40 -34 74 0 54 -27 93 -110 163 -132 110 -220 194
-214 203 7 12 -2 17 184 -109z m-818 -8 c-33 -44 -85 -114 -116 -156 l-56 -78
-70 0 c-39 0 -70 2 -70 5 0 19 32 74 56 97 49 45 309 228 312 219 2 -5 -24
-44 -56 -87z m634 65 c16 -17 73 -67 126 -110 123 -101 171 -161 162 -203 -3
-17 -19 -44 -35 -61 l-28 -29 -27 24 c-14 14 -50 61 -79 105 -58 88 -170 305
-157 305 5 0 21 -14 38 -31z m-42 -46 c13 -27 52 -95 85 -153 34 -58 61 -112
61 -120 -1 -27 -66 -90 -93 -90 -3 0 -21 33 -40 73 -37 75 -70 170 -92 263
-12 53 -12 56 9 64 37 15 45 11 70 -37z m-504 5 c-4 -18 -24 -86 -45 -151 -36
-112 -74 -177 -103 -177 -6 0 -25 18 -42 41 -32 40 -32 40 -13 62 11 12 43 56
73 97 70 99 119 160 130 160 4 0 5 -15 0 -32z m105 -8 c20 0 21 -4 17 -122 -4
-136 -17 -173 -66 -196 -24 -12 -30 -12 -48 5 -11 10 -29 30 -39 44 -19 27
-19 27 21 150 22 68 42 130 45 137 4 11 9 10 27 -2 12 -9 32 -16 43 -16z m321
-123 l43 -129 -41 -44 c-32 -35 -44 -42 -58 -34 -37 20 -66 125 -71 265 -3 55
-1 60 22 66 55 16 59 11 105 -124z m-146 -6 l24 -119 -24 -36 c-14 -19 -35
-41 -48 -48 -22 -11 -27 -9 -59 26 l-36 39 8 96 c4 53 8 111 7 129 l-1 32 53
0 53 0 23 -119z m-1236 -177 c41 -41 43 -31 -21 -104 l-23 -25 0 83 c0 45 2
82 4 82 2 0 20 -16 40 -36z m786 -45 c0 -3 -13 -18 -30 -34 l-30 -29 0 70 1
69 29 -35 c16 -19 30 -38 30 -41z m148 26 l32 -44 -29 -30 c-34 -35 -45 -33
-84 14 l-28 34 33 34 c18 19 35 35 38 36 3 0 20 -20 38 -44z m-759 1 l33 -34
-21 -31 c-13 -17 -28 -31 -34 -31 -7 0 -26 17 -43 37 l-32 38 22 27 c11 15 26
27 32 27 5 1 25 -14 43 -33z m1331 -62 c0 -13 -52 -64 -66 -64 -10 0 -74 74
-74 86 0 5 15 23 33 42 l32 33 37 -43 c21 -24 38 -48 38 -54z m-386 51 c25
-33 26 -36 11 -59 -9 -14 -27 -32 -40 -40 -23 -15 -25 -14 -54 22 l-30 38 37
37 c20 20 40 37 43 37 4 0 19 -16 33 -35z m174 6 c36 -34 34 -44 -14 -85 -33
-27 -35 -28 -54 -11 -33 30 -34 53 -3 90 15 18 30 34 33 34 3 1 20 -12 38 -28z
m-988 -33 l0 -53 -27 27 -27 27 24 26 c13 14 25 25 27 25 2 0 3 -24 3 -52z
m1360 17 l34 -35 -39 -40 -39 -40 -33 32 c-18 18 -33 36 -33 42 0 11 60 76 70
76 3 0 21 -16 40 -35z m379 1 c37 -38 35 -50 -18 -100 l-31 -30 -35 34 c-19
19 -35 38 -35 44 0 11 70 86 80 86 3 0 21 -15 39 -34z m-189 -27 l22 -30 -23
-25 c-30 -32 -39 -31 -79 11 l-34 35 29 30 c32 34 50 30 85 -21z m375 11 l39
-40 -31 -31 -31 -32 -43 41 -44 41 29 30 c17 17 32 31 36 31 3 0 24 -18 45
-40z m149 -7 c9 -56 7 -83 -5 -83 -13 0 -59 41 -59 53 0 11 42 66 51 66 4 1 9
-16 13 -36z m-2285 -38 c17 -20 31 -39 31 -43 0 -4 -20 -27 -44 -51 l-45 -44
-36 36 -37 37 42 50 c23 27 45 50 50 50 4 0 22 -16 39 -35z m750 -12 l31 -38
-67 -67 c-68 -68 -68 -68 -76 -43 -15 43 1 108 34 148 17 20 34 37 39 37 5 0
22 -17 39 -37z m-567 -2 c31 -27 33 -33 31 -87 -2 -31 -5 -60 -8 -63 -7 -6
-125 110 -125 123 0 15 42 56 57 56 7 0 27 -13 45 -29z m1101 -13 l35 -42 -29
-43 c-17 -24 -36 -43 -43 -43 -6 0 -26 20 -44 45 l-31 44 32 40 c18 22 35 40
39 40 3 1 22 -18 41 -41z m-355 -7 l31 -38 -35 -34 -34 -33 -15 21 c-9 12 -22
29 -30 37 -8 8 -15 18 -15 22 0 10 51 64 60 64 4 0 21 -17 38 -39z m177 3 l28
-36 -40 -40 -40 -40 -28 36 -27 36 33 39 c19 22 37 40 40 40 4 1 19 -15 34
-35z m340 18 c6 -4 21 -19 34 -34 l24 -27 -27 -36 c-32 -42 -41 -43 -78 -8
-35 33 -35 37 0 78 30 37 32 38 47 27z m225 -27 l33 -34 -39 -43 c-21 -24 -40
-43 -43 -42 -10 2 -71 69 -71 78 0 14 61 76 75 76 6 0 26 -16 45 -35z m394
-13 l29 -31 -39 -45 c-22 -25 -44 -45 -51 -46 -6 0 -26 18 -43 40 l-32 40 37
45 c40 50 48 50 99 -3z m-204 -67 c-31 -33 -40 -32 -80 10 l-34 35 29 30 29
30 40 -39 40 -40 -24 -26z m383 -7 l-33 -32 -35 34 c-19 19 -35 38 -35 44 0 5
12 23 27 38 l27 28 40 -40 41 -40 -32 -32z m-89 -17 l39 -40 -31 -39 c-53 -66
-56 -67 -93 -27 -19 20 -34 40 -34 45 0 11 67 99 75 100 3 0 23 -18 44 -39z
m-205 -21 l32 -40 -23 -29 -23 -29 -42 41 -42 40 22 28 c12 15 27 28 33 28 6
1 25 -17 43 -39z m340 -15 c-2 -25 -5 -45 -8 -45 -3 1 -17 10 -30 21 l-24 20
23 24 c33 35 41 31 39 -20z m-40 -59 l33 -34 -43 -51 c-24 -28 -47 -51 -50
-51 -6 0 -43 39 -53 58 -4 7 7 29 28 54 20 23 36 45 36 50 0 16 17 7 49 -26z
m-201 -31 c18 -19 32 -38 32 -43 0 -5 -11 -19 -25 -32 l-26 -24 -40 40 -40 41
23 26 c30 35 39 34 76 -8z m239 -132 c-6 -57 -12 -61 -42 -33 -31 29 -31 35 1
78 24 30 28 32 37 17 5 -10 7 -37 4 -62z m-145 33 l27 -32 -24 -30 -23 -29
-31 29 c-17 17 -31 34 -31 40 0 11 40 56 49 55 3 0 18 -15 33 -33z"/>
<path d="M140 170 c0 -82 3 -100 15 -100 11 0 15 12 15 47 l0 47 48 -52 c44
-48 72 -65 72 -44 0 5 -9 17 -21 28 -12 10 -30 31 -41 46 l-19 28 28 40 c15
22 31 40 35 40 16 0 68 -110 68 -144 0 -25 4 -36 15 -36 11 0 15 11 15 40 0
35 44 130 60 130 3 0 4 -38 2 -85 -3 -71 -1 -85 12 -85 12 0 16 17 18 88 3 79
5 87 24 90 11 2 31 -5 44 -16 19 -16 21 -22 11 -40 -7 -14 -21 -22 -36 -22
-14 0 -25 -4 -25 -9 0 -15 61 -86 81 -93 25 -10 24 -3 -7 38 -26 33 -26 35 -8
48 17 13 19 11 31 -23 7 -20 13 -37 13 -37 0 -1 16 -9 35 -19 46 -21 87 -12
120 27 39 47 34 58 -30 58 -42 0 -55 -3 -55 -15 0 -11 11 -15 37 -15 35 0 36
0 18 -20 -51 -56 -138 20 -109 95 17 44 90 51 123 11 14 -17 41 -22 41 -7 0 4
-12 20 -26 35 -37 36 -100 36 -143 0 -17 -14 -31 -21 -31 -16 0 28 -33 42 -96
42 -63 0 -64 0 -90 -40 -15 -22 -29 -40 -33 -40 -3 0 -16 18 -29 40 -33 58
-67 56 -113 -7 l-34 -48 -3 48 c-2 33 -7 47 -18 47 -11 0 -14 -19 -14 -100z"/>
<path d="M791 205 c33 -52 40 -72 37 -100 -3 -29 -1 -35 14 -35 14 0 18 8 18
43 0 29 9 56 30 90 29 46 31 47 80 47 28 0 50 -3 50 -8 0 -4 -25 -41 -55 -82
-30 -41 -55 -78 -55 -82 0 -5 36 -8 80 -8 92 0 109 18 21 22 l-59 3 52 72 c50
71 87 96 108 75 5 -5 8 -45 6 -91 -2 -67 0 -81 12 -81 12 0 15 16 15 87 l0 88
33 3 c17 2 32 7 32 13 0 5 -66 9 -157 9 l-158 0 -23 -40 c-12 -22 -26 -40 -30
-40 -4 0 -18 18 -32 40 -14 22 -32 40 -42 40 -14 0 -9 -12 23 -65z"/>
<path d="M1241 256 c-75 -42 -61 -158 23 -186 31 -10 42 -9 74 7 20 10 41 28
47 41 13 30 21 28 28 -7 11 -52 101 -66 130 -20 16 25 30 24 22 -1 -5 -15 -2
-20 12 -20 16 0 18 9 16 85 -1 46 2 87 8 90 5 4 23 4 39 0 53 -12 48 -75 -6
-75 -13 0 -24 -4 -24 -9 0 -15 61 -86 81 -93 25 -10 24 -1 -7 39 -14 19 -24
35 -23 36 2 1 14 10 26 20 16 14 25 16 40 8 10 -6 34 -14 53 -19 43 -10 51
-37 16 -53 -20 -10 -30 -9 -50 5 -37 23 -52 21 -34 -6 19 -28 62 -40 96 -27
32 12 42 26 42 61 0 32 -6 36 -68 51 -51 13 -60 31 -27 53 17 11 25 11 49 -2
38 -19 50 -14 31 14 -19 26 -79 30 -112 7 -18 -13 -22 -13 -33 0 -9 11 -33 15
-86 15 l-74 0 0 -80 c0 -71 -2 -81 -21 -91 -29 -15 -67 3 -75 36 -3 14 -4 50
-2 80 4 48 2 55 -14 55 -15 0 -17 -6 -13 -41 4 -26 2 -38 -5 -34 -5 3 -10 12
-10 20 0 43 -97 70 -149 41z m123 -59 c14 -38 -3 -79 -38 -96 -25 -12 -33 -11
-62 3 -58 27 -55 102 6 133 33 16 82 -4 94 -40z"/>
</g>
</svg>
